<mxfile host="65bd71144e">
    <diagram id="HIP3nbAZw_EuaXWnEj3U" name="Page-1">
        <mxGraphModel dx="1086" dy="658" grid="1" gridSize="10" guides="1" tooltips="1" connect="1" arrows="1" fold="1" page="1" pageScale="1" pageWidth="850" pageHeight="1100" math="0" shadow="0">
            <root>
                <mxCell id="0"/>
                <mxCell id="1" parent="0"/>
                <mxCell id="7" value="http://ics2o.mths.ca" style="swimlane;whiteSpace=wrap;html=1;" parent="1" vertex="1">
                    <mxGeometry x="40" y="40" width="760" height="480" as="geometry"/>
                </mxCell>
                <mxCell id="8" value="Student discount for the museum, in JS" style="rounded=0;whiteSpace=wrap;html=1;" vertex="1" parent="7">
                    <mxGeometry y="20" width="760" height="50" as="geometry"/>
                </mxCell>
                <mxCell id="9" value="Enter in the day of the week and your age" style="text;html=1;align=center;verticalAlign=middle;resizable=0;points=[];autosize=1;strokeColor=none;fillColor=none;" vertex="1" parent="7">
                    <mxGeometry y="70" width="250" height="30" as="geometry"/>
                </mxCell>
                <mxCell id="10" value="" style="shape=image;verticalLabelPosition=bottom;labelBackgroundColor=default;verticalAlign=top;aspect=fixed;imageAspect=0;image=data:image/jpeg,/9j/4AAQSkZJRgABAQAAAQABAAD/2wCEAAkGBwgHBgkIBwgKCgkLDRYPDQwMDRsUFRAWIB0iIiAdHx8kKDQsJCYxJx8fLT0tMTU3Ojo6Iys/RD84QzQ5OjcBCgoKDQwNGg8PGjclHyU3Nzc3Nzc3Nzc3Nzc3Nzc3Nzc3Nzc3Nzc3Nzc3Nzc3Nzc3Nzc3Nzc3Nzc3Nzc3Nzc3N//AABEIAJQAmgMBIgACEQEDEQH/xAAbAAABBQEBAAAAAAAAAAAAAAABAAIEBQYDB//EAD0QAAIBAwMBBQYEBAQGAwAAAAECAwAEEQUhMRIGE0FRYRQiMnGBkUJSobEHFWLBM9Hh8BYjJENTkkRygv/EABkBAQADAQEAAAAAAAAAAAAAAAACAwQBBf/EACURAAICAgICAgEFAAAAAAAAAAABAgMRMRIhBEEiUWEFEzKRsf/aAAwDAQACEQMRAD8A9wNIcUaVABs0hRpUA0k+FOHFKlQDSTRHFGhQAJpiTxuWCupK7HBqu1fUo7aJ/fCKoy8hOyis3/MpEVZp7KaK2b8bEdSj8zLyB+3jioSmk8GqrxZWRybP2mIzCISDrO+K71lYpChEkLbkZDA1c6dfrL0QOWaYJlmxscc/vXVLJG2hwWUT8nNOoA5o1IzjQTTqVKgG5OaJ4o0qAaDTqVKgAaS8UaVANNEUaVANaiOKNA0ADUDUr5baJh1hSFyzE7KPWut9diBSAffx9qygJ1l+8bP8vVsrn/5Def8A9B+vy5hOWNGrx6OT5S0MtJU1iU3DYMEMmEiPLNz1sPsQPr5Yr9Z18iUQWDSRx9ciSXJs3mUyKMiNAPiJ33HHSRzxcXtm7OLm0YRXaDAYj3XX8renryP3qLS3toDJcH2xms3eZNOXDdzI/VkrgZbJZsEkgZPHhWt9m2xOSzDX+Eu076xtoZnjCRvGHntVOTA2Mt0eYB8Pt5GwhmWRFlhkyjjKsp5B9azkVjBpsl1qt1caVY6xdY72WQDogj56BupY+bE+8d+AAJGktd+xJfxRZWR3MsCDpWUdRAljB+HqADdJ5z571xrB2MlPp7Nrpt91qkDggrGMuTzjGas6x9vPHcwiWFgynx9fEY86uNN1ELiGboSOOMAMTzjarIzzsxXeO49xLcUTxSDAgEbg8UasMg3xpx4pUqAaOadSpUADSXijSoBpoijSoBrc1wurgQx+bngUbqdbdCxIz+EeZrL3lxLqt1JawORCpxcTqcYP5F9fM+Hz4jKWDRRS7Hl6BLIdYleMMfY1bEkg/wC83io/pHB8+POp2FGygADYAUo4kijWKJQqIMKo4Ap1VYNra0tDRUG+sxOVkgfubmP/AA5QM49CPFT4j9jvXm/8Rf4jm01RNH0K57poZh7ZeKvX0EHdAPHHj9q9MsLy3v7KG7s7hLiCVQyypw308PlXXHrsjXauXxKOx06JLy9kj7mzupkLyxNAsnTL/wCaNjuV8x8uDnNLpkxk1CK71tLw3EKM9pbF2bvwAM3G+FVdwACFx47kY2V9ZLdoMM0cqHMcqcofT+44NUuq2SawsVpqykTWxMyJEAPaSFIBVjwN919cHI54n6ZOVakuUP6Oljei4iF/BCLRrhj0W08iA3Sj8QwdifA75H6WVvcRXcXXGSfBlYYZD5EeBrK6XZLql6zvPJde0Q95fSvCF9nlDKY44yRlcYcdO+MZ2JrRXASLWLYw7TzA98F/EgGxI9DgA+pqMutE6m5rD2anSJpp0frYGNCEUYxvgf5irPwqm0F2BmQKSmeot4BsAY+wFXAderp6h1YzjNaI6PKuWJsQzmnHigKNdKxtOpUqABpDijSoBpzXOadYIyzkeg86dNKsUZdzgCspqupzXN2LS2x7QwyTysCebep8B4/IGoylxL6aXa/wG+vpb28e0t3KyAZmmA2hU8Af1H9OT4ZlW8MdvGsUCdEajCjOf9muVpbR2sAiiBxuSTuWJ5JPnUgVUvybnhfGOh+2OK8+/iL2ivJNL1LTuy0izXlqB7eYWzJBE2fh8ztuRuuR9LjtdrcgsbvTOzuo2P8APyuIrZ5h3nGSFH58cA14ta9rb/Tu1sOsrZsmpYMWoW3SVE54b3eVY4GRjkZ9KsivZltsx0bTsHq3Z7WtKseyraXdXM1xATeyk5MbJ8LdXkPDHGQN6ZpWndp+wva2OxsIn1PR9RmJAGwHiST+BlH0OPtQ3S2Wt6lFrPYKWXTtZZsvprEIXY8mJvhPjlfLw8K9a7EaDN2c0NLS8vJbq6djLO7yFlDnkLnw/c5NJdHK05PH17L/AGFQ7y0iu4hHKCOk9SspwyN4EHwNSyCeBQYJGpaZ1RRyScYrirlPpI0SuhX22VJ1Ce16bO4jae7YYgKjAmxyT+XHj+nlXexsGgDNIxe5lOZpsYJ9APADfA/zNdusPL3lpbdchXp75/dXHlnckfIYrneQzGAyzTM/dkM0SDpUqOR5nb1rTX4feZsy3fqHWK1jOya+qJGvs9vkkbd3CMkfM+H1xXK2vHW5wySRS4JHUQQw8dxUS5v7ewkS2it7iZzGZBFaw9XSg2yeAPQcnwzVZZa2dUxIkMI6Ylu4DBP3h7s7dMgwOliCcDf57VqSgvijz25PtmzttQlknjQqmCdzxirU8VldnTPKkZz6VorGcXFurqjIo90BvSs91aj2iyuWdncZp1KlVBYA0ySRY0Z3OFA3pzuqqWZsAcmsvrmsN1LHCpkkc4hh46j+Y+Sj/e9RlJItpplbLCBq+rSSTJBAvVcSZ7pPBB4u3p+/FC0tkt0KoSzMeqSRvikbzNVdukulzPLdt38c5DPchcGNvIj8nkfDx86uRjkfOqU8vJ6koKtKMdHRTiqTXO0+l6dexaVNfxW+pXcbezh/hVsYUufwgnjPNRu23ab/AIa0gTx273F5cN3VtCqkhnI8ceA8uTwPMebdnLC17f6ZfWesalL/AMSxSPLC8yAdKHlf6lyePw+HrOMTJZPD4rZXdmrTT7jUB2f7TPcaVrK3WWunbPeknJRyeGPKsNjn5Vb9obax7Z9p77T9OsptM12yH/TTTEhrwRgbSeIfghvLGastP/h/qeu6QLXtgEimtPcs7yKQPOI87o/gy+IJORn6VstH0XTNLuFuLOKe/wBQSIQe1zSF2CDYL1nYD5b1pjTKRhdsUsDexfZ0aXZQXuqW1qdbeLpuJ4kAPOcHGxbjLDn1rQzXEMLASN753CKOpj9BvXIQXE3+PN3aH/tw+Pzbn7YqRBbw26kQoFzu2BuT6nxq6NEFvsg75tYj0MV7mX4YxAnm+C324oJZxBg8vVNIOHlOcfIcD6CpONtqFWrrRS+9gB9D965tuCK4alqVjpVs1zqV3DbQj8cr4+3nULs/2g03tHay3WkzGWGOQxsWUqc4B4PhvRNZwdwcb62tO6uHupbuDuIzEzW7sGeJjkDC7nxAxvzjmoiz3VrLFPaw22laREAsvtyqhcbBSoBBXy98+W1XV2hWZJVJQODE7Dlc8H6H96zMFxqlha21vqGqt7ZKJAUutOacN0EKXUxYwpyrYbJ97GaSWHkLs0tpIoV4V3VPgPmh3B/t9KttIn6Zmjkm90jCIfPxrKaRLYQ21vDp94lytmBbz4wGXPHUox07+GBgGr2OVoJVlRQXTPSD54rtkeUBF4ZpxTqZGxZATjON8cZp9eeaCp1p5FCDOIj5eJrMWk8IW8vp2CyxM6ysTvGikkD5YwfXOa1Gsh2SONY2bfqJAyKzd5ZF5DcW/Slx09LdQ92VfysPEft9xVE9np+K1+3jWSlmv9Uu9RhRbe7t1mjSW2USx9CoG/5jTjn4SAFGfpyLPTLyB52Gk3EV3Yq3Q6xtk27eQPiPTkbedRbaJLe2kGjWyW96Ssc7XMhb2ZACc7ndQM9IGxPlviz0uK1g09PYH72JgXEpOTMSd2J8STvmraq1bLBXdbLx4sl3E0CKDcd1hWDKXxz4EevyqCndxTsbGwhtmupCzTNEE6mxyQNydvHFBJrSztI7u6bEkmAWKlnZz+FQASeDsPKo51mO9kSGC3nCSSmOC5YAKZlBbp6SeofCRkjwIr0owrr6SPJnZOztlqlsrb3DGbO+Dsv/AK/55qUPQYHlXK3kE8Kyr8LDO/hTp5obaJpriVIol3Z5GCgfU11kEdlNEc1idb/iNpdjp7XWlxvqYWbuWaJgqK2Mj3jyDvuAeCKyvbDWNR17tvb6FBqlzYadcWyyWT279Ando+pC5GNi3u+mKplYlosUWz03Ue0mkaXqNrp17exx3t0wWKDOWOdhnyBIxk155r/b/V9Q7LahqOgQrYizvhbTGQCSQIV2byHvbePNUGtaN2muew1lq2r21xHqOk3AEU87DvHgbBBPjlXxjPgai9gdat4GvtE19OjT+0CHFyT8MhJUN8s5HoQKqlNt4JqKRf6boun9quzbzrrMmp9olsjMsbyZMbb+643J3yAM+I24q6/gvq6X/Zc2DBFuLB8HAALI26n9x9KyH8PdQuOyep3+lt2fN/qXtAjE0IHeRoDhwTz07AgbZrdaB2LutE7b6nq9rcwx6bcg9NsoJY9WGOfLDZxztUq12mjkvaNnOizQSRMNnUr8s+NZftRbmbS/5pNNMZNNBf2ZZRErsuQ4LY6veXO2cH61qiNqq9QjKmUR28VxJIheGOUAr3yg458xj7VpxlNFOeyu0nUDeAWVppEX8tdSDd2rFYQCPAMi9Wc8rketXNrIXhHWcup6X+Y/3n61lLbQ5LmTEUd2yCzZGkv1MaRS4ATuUUjo6d89GBxuTWniVoLlIy5fvIhljyzrgEn5gj7VyvWGdnvJodFnUoYFVsoOoseNzVpmqHSIZ3nLo5SJSOrb4/T9eavs1jtSU3gvg3gDr1KVPB2NUt/YNEQYEJRUyTnirs0GVXUqwyCMEVU1kurscHlGOubbvSJYnEVwowkmP0I8Qa6xNI8aGWMRyEDqRW6gPkfKrS/0/oJeAIsaruMmq4jG3lUvHlwsw/Zf5LV1WV6K2e0Ek4QTtbvE5uYZVAOMgq4IOxG/61UoYo51uuztlHqmoNITcXcq9CuG+I99jA4HwhtgBgVobtSFWcbmI9R9V/EPt+1UMt/qdrJqC31zpi2iT91Gl4vcJLG4ygWQZB26gR0kkjwBrfP7PLj9GgtGMMzwsoHWO9QZyN/iAPjv+9UPbzsZB2tt1eS4mjnt4pBCit7jOR7pYeh/eu+iRw29kZre4sX6Zmm7iylDxRIwAZVPlsW4G+dhWjHO1caUkE8M8d/h7FFrvYrWezT20aanZv3seVAZiDlcnxwwK/JqzJ9q1zsnDd2iyDU+ztxhwqksIHbqVuM+44I9Aa9Os+xeoaf/ABLl1/TJLePTp1LXCMx6mLfEoAH5gG3rRaN2U0nRtVvdUsYXW6vWJlYyHpGTkgDgDO/nWdVtlvLBgezF1e9se10t8sF4dJuLIx3LT9QRWZAGRM7Y6xkY8qt9B/hZYW+k+wa/ONRRbgzxBAY+7yMMOoHJBwpPHAr0TGONhTTVirXsi5fRwtbaCzj6LWFI1wAekc4GBk8nbzroadjao013FG5j6i8g/BGOpvr5fWrUvog2dixwcCoWpELbs5ZVZCHQk4yR4fXj604+1SjOUtk+YZ/8h+td7TTHkYPHCzH/AM0xP6E7/bautxj22cw3ojG5mmX/AKeBgCPjl93H05P6Uba2leYtl7icDHurgL6en1NXsGkxA5uHaQnw4X/WrFI0jQKiBVHAUYxVMvIS/iixVv2RdLgkt7fplChixOAc1NoZFGsreXkuARmkBikTikDmuADL1DBAx61V6lY7PMhUBVHuhatSaXNCUZOL6MvjlWHI4PjVNqun3Wq6dJY290LeSCQMsnd9Tjpw0ZXJwNwM7Hg1p9VgWOcOvV7+5zwPlVPeRL3qNIMxSjuZQCRseNxvzt/+q3wfOJll0zM6JqumRzwzx6PcT6hdJiSUNHcToCTkP73UgBBBGw2rXWTHpeFzl4W6T8uV/SsdZWz9/HbWUstrE144k0m1jeFY06iGkeQe9nA6huFOQADzWj02K6so7Y30vXK3VDIerqwpYmMFvxEDC58Sa5DOhL7LgGnCuEs8UOO8cDPwryT8gN6Z3l1KcRRCBfzzbn6KP7kfKpHMkpmCAsxAUck7AVDN53hxaRtN/X8Kf+3j9M10h04TMGYPdOOGk+EfIfCP3q0h00n/AB5Nj+FNv15/aoOyMTvFsp+7llIWeUknP/KhGP8AU/pU600mQKFVEt4/IAZ+1XEMMUK9MSKo8ceNdOKole3osVa9kWCwhhIYL1OPxNuf9Kl0M0aqbb2TSwADBo0M0a4dBijQzRoAEZpAYpE0hvQCIpAUicURQEe9iaWBlVgnmTxis5cRCeOSNj8W3UPD1rUnB2NcHs7dl6e6UDzUYNW1W8Nlc45MzHdyqoSS3maXG4VfdJ8+rOMUnhnu1xcusUbcpHux+bH+w+tXKaYTIeuQBPJeTU+C1hg3jQZ/Mdz96vlfFaIKtvZUWWmuozFEI88vJnqP9z9asYtOiQ9UmZW/q4+1S+KcKzSslItUUtDQoHpTqGaNQJAxvRoZo0AMUaGd6NAACieKAO9GgABijQzRoAGkOKVKgEaIpUqABFKlSoAEU4UqVANI3oilSoAEb06lSoBuKdSpUA3G9OpUqAaBvTjxSpUAMUaVKgP/2Q==;" vertex="1" parent="7">
                    <mxGeometry x="600" y="80" width="154" height="148" as="geometry"/>
                </mxCell>
                <mxCell id="11" value="Your age" style="text;html=1;align=center;verticalAlign=middle;resizable=0;points=[];autosize=1;strokeColor=none;fillColor=none;" vertex="1" parent="7">
                    <mxGeometry x="10" y="100" width="70" height="30" as="geometry"/>
                </mxCell>
                <mxCell id="12" value="" style="endArrow=none;html=1;" edge="1" parent="7">
                    <mxGeometry width="50" height="50" relative="1" as="geometry">
                        <mxPoint x="20" y="120" as="sourcePoint"/>
                        <mxPoint x="210" y="120" as="targetPoint"/>
                    </mxGeometry>
                </mxCell>
                <mxCell id="13" value="Monday" style="text;html=1;align=center;verticalAlign=middle;resizable=0;points=[];autosize=1;strokeColor=none;fillColor=none;" vertex="1" parent="7">
                    <mxGeometry x="10" y="139" width="70" height="30" as="geometry"/>
                </mxCell>
                <mxCell id="14" value="" style="endArrow=none;html=1;" edge="1" parent="7">
                    <mxGeometry width="50" height="50" relative="1" as="geometry">
                        <mxPoint x="20" y="160" as="sourcePoint"/>
                        <mxPoint x="210" y="160" as="targetPoint"/>
                    </mxGeometry>
                </mxCell>
                <mxCell id="15" value="" style="triangle;whiteSpace=wrap;html=1;rotation=90;" vertex="1" parent="7">
                    <mxGeometry x="190" y="139" width="10" height="20" as="geometry"/>
                </mxCell>
                <mxCell id="16" value="Check!" style="rounded=0;whiteSpace=wrap;html=1;" vertex="1" parent="7">
                    <mxGeometry x="20" y="169" width="50" height="30" as="geometry"/>
                </mxCell>
            </root>
        </mxGraphModel>
    </diagram>
</mxfile>